<?xml version="1.0" encoding="utf-8"?>
<!-- Generator: Adobe Illustrator 20.0.0, SVG Export Plug-In . SVG Version: 6.00 Build 0)  -->
<!DOCTYPE svg PUBLIC "-//W3C//DTD SVG 1.1//EN" "http://www.w3.org/Graphics/SVG/1.1/DTD/svg11.dtd">
<svg version="1.1" id="Layer_1" xmlns="http://www.w3.org/2000/svg" xmlns:xlink="http://www.w3.org/1999/xlink" x="0px" y="0px"
	 width="80px" height="80px" viewBox="0 0 80 80" enable-background="new 0 0 80 80" xml:space="preserve">
<g>
	<path stroke="#FFFFFF" stroke-width="1.0855" stroke-miterlimit="10" d="M2.3,40c-0.2-20.6,17-37.9,38-37.7
		c20.4,0.2,37.4,17.1,37.3,37.8C77.6,59.9,61.9,77.7,40,77.7C18.2,77.7,2.1,59.9,2.3,40z M33.9,42.5c0.3,0.2,0.5,0.4,0.8,0.5
		c3.2,2.6,6.5,5.2,9.7,7.8c2.9,2.4,5.9,4.8,8.8,7.1c0.8,0.7,1.7,1.2,2.8,1c2.1-0.5,2.9-2.2,2-4.4C53.1,42.7,48.2,30.9,43.2,19
		c-0.5-1.2-1.2-2-2.7-2c-1.4,0-2.2,0.8-2.7,2c-5.3,12.8-10.7,25.7-16,38.5c-0.1,0.3-0.2,0.6-0.4,1c1.9,0,3.7,0,5.5,0
		c0.3,0,0.6-0.4,0.7-0.7c0.5-1.1,0.9-2.2,1.3-3.2C30.7,50.7,32.3,46.6,33.9,42.5z"/>
	<path fill="#FFFFFF" d="M34.1,42.4c-1.6,4-3.2,7.9-4.7,11.8c-0.4,1.1-0.8,2.1-1.3,3.1C28,57.7,27.7,58,27.4,58
		c-1.7,0.1-3.4,0-5.3,0c0.1-0.4,0.2-0.7,0.3-1C27.6,44.6,32.8,32.2,38,19.7c0.5-1.2,1.2-1.9,2.6-2c1.4,0,2.1,0.8,2.6,1.9
		c4.8,11.5,9.5,22.9,14.3,34.4c0.9,2.2,0.1,3.8-1.9,4.3c-1.1,0.2-1.9-0.3-2.7-1c-2.9-2.3-5.7-4.6-8.5-6.9c-3.1-2.5-6.2-5.1-9.4-7.6
		C34.7,42.7,34.4,42.6,34.1,42.4z M40.6,26.3c-0.2,0.4-0.3,0.6-0.4,0.9c-1.3,3.2-2.5,6.4-3.8,9.6c-0.4,0.9-0.2,1.3,0.5,1.9
		c2.8,2.1,5.5,4.3,8.3,6.5c1.4,1.1,2.8,2.2,4.3,3.3c0,0,0.1-0.1,0.1-0.1C46.6,41,43.6,33.7,40.6,26.3z"/>
	<path d="M40.6,26.3c3,7.4,6,14.7,8.9,22c0,0-0.1,0.1-0.1,0.1c-1.4-1.1-2.8-2.2-4.3-3.3c-2.8-2.2-5.5-4.3-8.3-6.5
		c-0.7-0.5-0.9-1-0.5-1.9c1.3-3.2,2.6-6.4,3.8-9.6C40.3,26.9,40.4,26.6,40.6,26.3z"/>
</g>
</svg>